{"title":"Mast Bana Denge 720P Kanwar Grewal 2013 Punjabi Video Full Song ","uid":8956000,"size":64040244,"categoryP":"video","categoryS":"music_videos","magnet":"?xt=urn:btih:d143a5e1a4910ab66d7ab0edc4efb6aec7a9fb68&amp;dn=Mast+Bana+Denge+720P+Kanwar+Grewal+2013+Punjabi+Video+Full+Song+&amp;tr=udp%3A%2F%2Ftracker.openbittorrent.com%3A80&amp;tr=udp%3A%2F%2Fopen.demonii.com%3A1337&amp;tr=udp%3A%2F%2Ftracker.coppersurfer.tk%3A6969&amp;tr=udp%3A%2F%2Fexodus.desync.com%3A6969","seeders":1,"leechers":0,"uploader":"jatt13","files":1,"time":1379995587,"description":"[img]http://imageshack.us/a/img802/2678/k9wp.png[/img]\n\nVideo\nID                             : 0\nFormat                         : AVC\nFormat/Info                    : Advanced Video Codec\nFormat profile                 : &lt;a class=&quot;__cf_email__&quot; href=&quot;/cdn-cgi/l/email-protection&quot; data-cfemail=&quot;165b777f78565a233827&quot;&gt;[email&amp;#160;protected]&lt;/a&gt;&lt;script cf-hash='f9e31' type=&quot;text/javascript&quot;&gt;\n/* &lt;![CDATA[ */!function(){try{var t=&quot;currentScript&quot;in document?document.currentScript:function(){for(var t=document.getElementsByTagName(&quot;script&quot;),e=t.length;e--;)if(t[e].getAttribute(&quot;cf-hash&quot;))return t[e]}();if(t&amp;&amp;t.previousSibling){var e,r,n,i,c=t.previousSibling,a=c.getAttribute(&quot;data-cfemail&quot;);if(a){for(e=&quot;&quot;,r=parseInt(a.substr(0,2),16),n=2;a.length-n;n+=2)i=parseInt(a.substr(n,2),16)^r,e+=String.fromCharCode(i);e=document.createTextNode(e),c.parentNode.replaceChild(e,c)}}}catch(u){}}();/* ]]&gt; */&lt;/script&gt;\nFormat settings, CABAC         : Yes\nFormat settings, ReFrames      : 1 frame\nCodec ID                       : H264\nDuration                       : 9mn 8s\nBit rate                       : 796 Kbps\nWidth                          : 1 280 pixels\nHeight                         : 720 pixels\nDisplay aspect ratio           : 16:9\nFrame rate                     : 25.000 fps\nColor space                    : YUV\nChroma subsampling             : 4:2:0\nBit depth                      : 8 bits\nScan type                      : Progressive\nBits/(Pixel*Frame)             : 0.035\nStream size                    : 52.1 MiB (85%)\n\nAudio\nID                             : 1\nFormat                         : MPEG Audio\nFormat version                 : Version 1\nFormat profile                 : Layer 3\nCodec ID                       : 55\nCodec ID/Hint                  : MP3\nDuration                       : 9mn 8s\nBit rate mode                  : Constant\nBit rate                       : 128 Kbps\nChannel(s)                     : 2 channels\nSampling rate                  : 44.1 KHz\nCompression mode               : Lossy\nStream size                    : 8.37 MiB (14%)\nAlignment                      : Split accross interleaves\nInterleave, duration           : 41 ms (1.01 video frame)\nInterleave, preload duration   : 18 ms\nWriting library                : LAMELAME_MAJOR_VERSI\n\n[img]http://imageshack.us/a/img716/7417/ftzf.jpg[/img]\n[img]http://imageshack.us/a/img29/7638/vo0d.png[/img]\n[img]http://imageshack.us/a/img163/6779/tkqj.png[/img]","torrent":{"xt":"urn:btih:d143a5e1a4910ab66d7ab0edc4efb6aec7a9fb68","amp;dn":"Mast+Bana+Denge+720P+Kanwar+Grewal+2013+Punjabi+Video+Full+Song+","amp;tr":["udp%3A%2F%2Ftracker.openbittorrent.com%3A80","udp%3A%2F%2Fopen.demonii.com%3A1337","udp%3A%2F%2Ftracker.coppersurfer.tk%3A6969","udp%3A%2F%2Fexodus.desync.com%3A6969"],"infoHash":"d143a5e1a4910ab66d7ab0edc4efb6aec7a9fb68","infoHashBuffer":{"type":"Buffer","data":[209,67,165,225,164,145,10,182,109,122,176,237,196,239,182,174,199,169,251,104]},"announce":[],"urlList":[]}}